<?xml version="1.0" encoding="UTF-8" standalone="no"?>
<svg width="194" height="53" viewBox="0 0 194 53" fill="none" xmlns="http://www.w3.org/2000/svg">
    <path d="M55.7649 39H59.2876V28.375H65.6513C72.4268 28.375 75.4808 24.2557 75.4808 19.1136C75.4808 13.9716 72.4268 9.90909 65.5945 9.90909H55.7649V39ZM59.2876 25.25V13.0341H65.4808C70.2109 13.0341 72.0149 15.6193 72.0149 19.1136C72.0149 22.608 70.2109 25.25 65.5376 25.25H59.2876ZM87.1214 39.5114C90.9283 39.5114 92.9169 37.4659 93.5987 36.0455H93.7692V39H97.1214V24.625C97.1214 17.6932 91.8374 16.8977 89.0533 16.8977C85.7578 16.8977 82.0078 18.0341 80.3033 22.0114L83.4851 23.1477C84.2237 21.5568 85.9709 19.8523 89.1669 19.8523C92.2493 19.8523 93.7692 21.4858 93.7692 24.2841V24.3977C93.7692 26.017 92.1214 25.875 88.1442 26.3864C84.0959 26.9119 79.6783 27.8068 79.6783 32.8068C79.6783 37.0682 82.9737 39.5114 87.1214 39.5114ZM87.6328 36.5C84.9624 36.5 83.0305 35.3068 83.0305 32.9773C83.0305 30.4205 85.3601 29.625 87.9737 29.2841C89.3942 29.1136 93.201 28.7159 93.7692 28.0341V31.1023C93.7692 33.8295 91.6101 36.5 87.6328 36.5ZM104.618 47.1818C107.643 47.1818 109.774 45.5767 111.038 42.1818L120.328 17.2386L116.663 17.1818L110.641 34.5682H110.413L104.391 17.1818H100.754L108.822 39.1136L108.197 40.8182C106.976 44.142 105.47 44.4545 103.027 43.8295L102.175 46.7841C102.516 46.9545 103.482 47.1818 104.618 47.1818ZM132.221 39.4545C136.425 39.4545 137.846 36.8409 138.585 35.6477H138.982V39H142.221V9.90909H138.869V20.6477H138.585C137.846 19.5114 136.539 16.8977 132.278 16.8977C126.766 16.8977 122.96 21.2727 122.96 28.1477C122.96 35.0795 126.766 39.4545 132.221 39.4545ZM132.675 36.4432C128.471 36.4432 126.312 32.75 126.312 28.0909C126.312 23.4886 128.414 19.9091 132.675 19.9091C136.766 19.9091 138.925 23.2045 138.925 28.0909C138.925 33.0341 136.71 36.4432 132.675 36.4432ZM157.69 39.4545C163.599 39.4545 167.576 34.9659 167.576 28.2045C167.576 21.3864 163.599 16.8977 157.69 16.8977C151.781 16.8977 147.803 21.3864 147.803 28.2045C147.803 34.9659 151.781 39.4545 157.69 39.4545ZM157.69 36.4432C153.201 36.4432 151.156 32.5795 151.156 28.2045C151.156 23.8295 153.201 19.9091 157.69 19.9091C162.178 19.9091 164.224 23.8295 164.224 28.2045C164.224 32.5795 162.178 36.4432 157.69 36.4432ZM181.5 47.6364C186.727 47.6364 190.932 45.25 190.932 39.625V17.1818H187.693V20.6477H187.352C186.614 19.5114 185.25 16.8977 180.989 16.8977C175.477 16.8977 171.67 21.2727 171.67 27.9773C171.67 34.7955 175.648 38.6591 180.932 38.6591C185.193 38.6591 186.557 36.1591 187.295 34.9659H187.58V39.3977C187.58 43.0341 185.023 44.6818 181.5 44.6818C177.537 44.6818 176.145 42.5938 175.25 41.3864L172.58 43.2614C173.943 45.5483 176.628 47.6364 181.5 47.6364ZM181.386 35.6477C177.182 35.6477 175.023 32.4659 175.023 27.9205C175.023 23.4886 177.125 19.9091 181.386 19.9091C185.477 19.9091 187.636 23.2045 187.636 27.9205C187.636 32.75 185.42 35.6477 181.386 35.6477Z" fill="#FF8000"/>
    <path d="M30.2788 42.5785L30.0652 42.6108L29.8592 42.639L29.6609 42.6619L29.4716 42.6794L29.2874 42.6928L29.1121 42.7009L28.9433 42.7049H28.7808L28.626 42.6995L28.4776 42.6901L28.3356 42.6767L28.2 42.6592L28.0695 42.6363L27.9467 42.6108L27.829 42.5812L27.7177 42.5476L27.6116 42.5099L27.5105 42.4682L27.4158 42.4225L27.325 42.3741L27.2406 42.3216L27.16 42.2651L27.0845 42.206L27.0141 42.1427L26.9476 42.0768L26.8862 42.0069L26.8287 41.9343L26.7749 41.859L26.725 41.7796L26.679 41.6976L26.5984 41.5254L26.5306 41.3425L26.4756 41.1488L26.4308 40.9458L26.3963 40.7319L26.372 40.51L26.3541 40.28L26.3425 40.042L26.3361 39.7959L26.3349 39.5444L26.3374 39.2861L26.34 39.0225L26.3451 38.7549L26.3515 38.2035L26.3528 37.9237L26.0726 31.7008L24.9059 37.4463C24.6603 38.5115 24.384 39.5121 25.8577 40.319C26.9016 41.2887 25.7349 42.6121 24.5989 42.4507C21.191 42.5785 21.6822 40.1913 21.9893 38.5115L22.1735 36.0583L22.7261 31.0552L22.2656 29.7964C18.5506 28.7957 16.0331 28.0533 13.1778 26.4394L11.1515 26.7299C10.1997 26.8913 10.4453 28.0211 10.3532 28.7634L10.0462 30.7983L8.35758 35.4141L8.23477 35.8001C8.11196 36.1229 8.14267 37.3817 8.57249 38.0273L9.49355 39.9653C10.169 41.0292 10.3532 43.7405 8.44968 42.869H8.48039L7.0681 42.2557C6.05493 41.8052 5.22598 38.8679 4.85755 36.7375L4.91896 33.702C4.0286 33.4451 3.66018 38.8342 4.0286 39.9653L4.91896 42.7722C5.16457 43.676 4.15141 44.0001 3.44526 44.0001C1.78735 44.0001 1.05051 42.2234 0.712784 40.7386L0.46717 39.6089C0.0373415 37.8982 0.252254 35.2836 1.08121 33.7666L1.51104 32.8305C2.21718 30.9584 1.29612 29.635 1.08121 28.6666C0.375062 25.6325 -0.208274 22.6952 1.78736 19.7901L1.97157 19.5655C1.87946 19.3382 1.29612 18.8554 0.958402 17.7243C0.190852 15.1421 -0.484592 10.9136 0.46717 10.9136L1.11191 10.8813C2.70841 10.8813 2.21718 17.8534 4.15141 17.4015L17.9673 17.5629L20.4235 16.8542C21.2831 16.5946 22.0507 16.0136 22.8489 15.4971L24.4454 14.4642C26.2261 16.3686 27.8226 17.5629 30.4323 18.5635C31.1384 24.2445 30.3402 25.5047 29.6648 28.8926L29.4191 30.2805C28.8972 32.7027 28.7437 35.2191 28.8665 37.7368L28.9279 38.8988C28.8665 40.0931 29.5419 40.1913 30.4323 40.4818C31.0156 40.8032 31.4148 41.9975 30.2788 42.5785H30.3095H30.2788Z" fill="#FF8000"/>
    <path d="M33.2263 7.78265L33.2954 7.83645L33.367 7.89024L33.5116 8.00725L33.6612 8.13233L33.8135 8.26548L33.9682 8.40535L34.1243 8.5506L34.2829 8.70123L34.4429 8.8559L34.6028 9.01595L34.7627 9.17734L35.0786 9.50819L35.2334 9.67496L35.3869 9.84173L35.5366 10.0072L35.6824 10.1726L36.6649 11.2687C37.279 11.9465 38.2307 11.8497 39.0597 12.0434L39.3974 12.0756C40.2877 12.5934 40.0114 13.6263 39.7044 14.3997L39.5202 14.8852C38.6298 17.111 36.0509 17.2724 34.2087 16.2395L33.4105 15.7876H33.1342L32.5508 16.175L31.4149 17.1447C29.0201 16.0472 27.0859 14.7547 25.5508 13.0117L29.1122 8.2991L30.3096 6.49152L30.5552 5.87824L30.8315 5.20174C30.8315 5.20174 31.9368 3.74788 32.5815 4.03838C33.2263 4.33023 33.6254 5.58773 33.4719 6.2333L33.2877 7.00797L33.2263 7.78265H33.257Z" fill="#FF8000"/>
</svg>

